<?xml version="1.0" encoding="utf-8"?>
<!-- Generator: Adobe Illustrator 23.1.1, SVG Export Plug-In . SVG Version: 6.00 Build 0)  -->
<svg version="1.1" id="Layer_1" xmlns="http://www.w3.org/2000/svg" xmlns:xlink="http://www.w3.org/1999/xlink" x="0px" y="0px"
	 viewBox="0 0 150 150" style="enable-background:new 0 0 150 150;" xml:space="preserve">
<style type="text/css">
	.st0{fill:#F38900;}
</style>
<circle class="st0" cx="126.4" cy="58.9" r="9.4"/>
<circle class="st0" cx="101.9" cy="69.7" r="9.4"/>
<circle class="st0" cx="107.6" cy="102.8" r="9.4"/>
<circle class="st0" cx="83" cy="119.3" r="11.7"/>
<circle class="st0" cx="77.8" cy="90.9" r="11.7"/>
<circle class="st0" cx="64.9" cy="63.3" r="10.1"/>
<circle class="st0" cx="35.2" cy="77.2" r="10.1"/>
<circle class="st0" cx="48.9" cy="99.8" r="9.4"/>
<circle class="st0" cx="54.9" cy="126.1" r="11.1"/>
<path d="M113.5,39.9c-4.9,0.6-9.8,1-14.1,1.5c-2-4.8-3.5-9-5.5-12.9C87,15.6,64.7,12.9,55.7,24.3C51.9,29,50,35.3,47.1,40.8
	c-0.7,1.3-2.2,3-3.5,3.1c-7.6,0.6-15.2,0.7-22.8,1.2c-4.1,0.2-8.2,0.9-12.3,1.3c0.1,0.5,0.1,1,0.2,1.5c26.2,0,52.5,0,79,0
	c-0.6,3.3-1.2,6.9-1.9,11.1c-6.2,0-12.2-0.2-18.1,0.1c-7.6,0.4-7.6,0.6-9.8-6.2c0-0.1-0.3-0.1-0.7-0.3c0.2,2.4,0.4,4.7,0.5,6.9
	c-9.1,0.8-17.8,1.5-26.6,2.3c-1.1-2.9-2-5.5-3.4-9.4c0.5,4.1,0.8,6.8,1.2,9.9c-4.1,0.6-8,0.7-11.5,1.9c-5.1,1.8-6.8-0.9-8.4-4.8
	c-1.4-3.3-3.2-6.4-4.9-9.5c-0.4,0.2-0.7,0.4-1.1,0.6c3.9,9.6,7.9,19.2,11.7,28.8c2,4.9,3.8,9.9,5.6,14.8c0.9,2.5,1.8,4.9,2.8,7.4
	c3.8,10,7.4,20.1,11.6,30c2.3,5.3,7.1,7.9,12.7,9.5c13.3,3.8,26.9,4.3,40.5,3.8c20-0.8,14.9,3.7,26.4-12.8c0.3-0.4,0.8-0.7,1-1.1
	c3.7-6.6,8.3-12.9,10.9-19.9c4.6-12.6,8.2-25.6,11.7-38.5c2.8-10.5,4.9-21.1,7.4-31.9c-3.8-1.4-6.8-3.5-9.8-3.4
	C128.3,37.6,120.9,39,113.5,39.9z M118.7,44.7c0.4,0.6,0.7,0.9,0.6,1.2c-0.9,9.9-0.9,9.9-10.6,10.9c-5.6,0.5-11.2,1-16.8,1.4
	c-0.8,0.1-1.6,0-3.1,0c0.3-3.3,0.5-6.2,1-9.1c0.2-0.8,1.5-1.9,2.4-2C101.1,46.2,110,45.5,118.7,44.7z M50.7,44.2
	c2.1-14.5,11.2-23,23.4-22.1c9.6,0.7,18.4,6.7,18.7,20C78.8,42.8,64.8,43.5,50.7,44.2z M86.4,101.2c0,0.8-1.8,2.4-2.8,2.4
	c-4.6,0.3-9.3,0.4-13.9,0.2c-1.1-0.1-2.8-1.7-3.1-2.8c-1.1-4.6-1.8-9.4-2.8-14.8c7.2,0,14.3,0,21.4,0
	C85.7,91.4,86.3,96.3,86.4,101.2z M85.7,107.2c0,6.1,0,11.8,0,17.8c-4.9,0.2-9.3,0.4-14.4,0.7c-0.9-5.9-1.8-12-2.7-18.5
	C74.7,107.2,80.2,107.2,85.7,107.2z M62.6,107.3c1.1,0,2.9,1.3,3.1,2.3c0.9,5.2,1.3,10.4,2,16.1c-4.8,0.4-9.2,0.8-13.6,1
	c-0.9,0-2.4-0.7-2.6-1.4c-1.7-5.6-3.1-11.3-4.7-17.3C52.1,107.7,57.3,107.3,62.6,107.3z M44.7,102.6C42.7,97,41,91.3,38.9,84.5
	c4.2,0,8.1-0.1,11.9,0c9.9,0.4,9.9,0.5,11.8,10.2c0.6,2.9,1.1,5.8,1.7,9.5c-6.1,0.3-11.6,0.7-17.2,0.8
	C46.3,105.1,45,103.6,44.7,102.6z M83.3,63.2c0.8,0,2.2,1.6,2.2,2.5c0.2,5.4,0.1,10.9,0.1,16.5c-8.1,0-15.4,0-22.9,0
	c-0.9-6.4-1.8-12.4-2.8-19.1C68.1,63.1,75.7,63,83.3,63.2z M42.7,64.4c5.1-0.2,10.2-0.1,15.5-0.1c0.7,5.8,1.4,11.5,2.2,17.7
	c-7.2,0-14,0.1-20.7-0.1c-0.9,0-2.2-1.8-2.6-3c-1.6-4.1-3-8.4-4.7-13.4C36.1,65.1,39.4,64.5,42.7,64.4z M20,84.3
	c-1.9-5.7-3.7-10.8-5.7-16.8c5.5-0.8,10.5-1.4,15.9-2.2c1.7,5.6,3.3,10.9,5.2,16.8C29.9,83,24.9,83.6,20,84.3z M26.4,97.8
	c-0.9-4.1-3.5-7.7-5.6-12.3c4.9-0.4,9.2-0.8,13.6-0.9c0.8,0,2.1,1.1,2.4,1.9c1.9,6.1,3.6,12.3,5.4,18.7c-2.1,0.2-3.5,0.5-5,0.5
	C27.3,105.8,28.4,106.7,26.4,97.8z M38.2,128.9c-1.7-5.5-4.9-10.6-7.2-15.9c-0.7-1.6-0.8-3.5-1.2-5.6c13.5-0.8,15.6,1,18.1,15.1
	c0.2,1.3,0.4,2.6,0.6,4.1c-2.5,0.4-5.1,0.7-7.6,1.1c7.1-0.4,10.4,3.3,11.7,10.4C46.5,136.6,40.5,136.4,38.2,128.9z M98.9,140.7
	c-10.3-0.1-20.5,0.1-30.8,0c-3.4-0.1-7.6,0.2-10.1-1.6c-2.8-1.9-4-6-6.4-9.9c6.3,0,11.1,0,15.8,0c1.1,2.7,2.1,5.3,3.1,7.9
	c0.4-0.1,0.8-0.2,1.3-0.3c0-2.6,0-5.3,0-8.2c4.3,0,8.4,0,12.9,0c0,0.8-0.1,1.6,0.2,2.3c0.5,1.5,1.1,2.9,1.7,4.3
	c0.9-1.3,1.7-2.7,2.7-4c0.9-1.1,2-2.7,3.2-2.8c4.9-0.3,9.9-0.1,15-0.1C110.6,135.7,107,140.8,98.9,140.7z M108,124.9
	c-5.8,0-11.6,0-17.9,0c0-5-0.2-10.1,0.1-15.1c0.1-1,2-2.5,3.2-2.6c5.1-0.3,10.2-0.1,15.9-0.1C108.9,113.4,108.5,119,108,124.9z
	 M109.5,103.6c-6.5,0-12.8,0-19.3,0c-0.5-5.8-0.9-11.3-1.5-17.6c7.8,0,15.2,0,23.1,0C111.1,91.7,110.3,97.5,109.5,103.6z M110,81.6
	c-6.7,0.6-13.5,0.9-20.9,1.3c0-6.8,0-13,0-19.9c9.1-0.9,18.2-1.7,27.6-2.6c-1.3,6.5-2.3,12.5-3.7,18.4C112.8,80,111.2,81.5,110,81.6
	z M113.3,127.7c-0.5-0.1-0.9-0.2-1.4-0.3c0.4-6.6,0.9-13.2,1.4-20.1c3.4-0.2,6.3-0.3,9.7-0.5C122,115.3,117.2,121.3,113.3,127.7z
	 M124.1,105.2c-3.5-0.5-6.6-0.9-10.5-1.4c0.6-5.9,1-11.5,1.8-17.1c0.1-0.8,1.4-2,2.3-2.1c4.1-0.4,8.2-0.6,13-0.9
	C128.4,91.4,126.3,98.2,124.1,105.2z M132.1,80.5c-5.6,0-10.1,0-15.8,0c2.6-7.9,1-16.2,4.7-21.2c0.5-6,0.7-10.1,1.5-14.1
	c0.1-0.8,2.4-1.5,3.8-1.7c4.7-0.6,9.4-0.9,15.3-1.4C138.4,55.4,135.2,68.2,132.1,80.5z"/>
</svg>
