<?xml version="1.0" encoding="utf-8"?>
<!-- Generator: Adobe Illustrator 23.1.1, SVG Export Plug-In . SVG Version: 6.00 Build 0)  -->
<svg version="1.1" id="Layer_1" xmlns="http://www.w3.org/2000/svg" xmlns:xlink="http://www.w3.org/1999/xlink" x="0px" y="0px"
	 viewBox="0 0 87.6 87.6" style="enable-background:new 0 0 87.6 87.6;" xml:space="preserve">
<path d="M74.5,57.3c-0.2-2.3-0.4-4.6-0.5-6.9c-0.1-1.6,0.2-3.1,0.2-4.7c0-2.2,0-4.5,0-6.7c0-2.4,0.2-4.8,0.2-7.2
	c0-1.9-0.1-3.8-0.2-5.8c-0.1-2.3-0.5-4.5-2.6-6c-0.2-0.2-0.4-0.5-0.4-0.8c-0.1-1-0.3-2.1-0.3-3.1c0-2.3-2.2-5.4-4.5-5.9
	c-2.4-0.5-4.8-0.8-7.2-1c-2.2-0.2-4.4-0.1-6.6,0c-1,0-2,0.2-2.9,0.2c-1.3,0-2.6,0-3.9,0c-2.6,0.1-5.2,0.2-7.8,0.2
	c-2.7,0-5.4-0.4-8-0.3c-2.8,0.1-5.6-0.2-8.4,1.4c-2.6,1.5-4.4,3.4-5.6,6c-0.9,2-1.5,4.2-1.6,6.5c-0.1,2.9-0.6,5.8-0.6,8.8
	c0,3.6,0.3,7.1,0.4,10.7c0,2.3-0.2,4.7-0.2,7c0,2.4,0,4.9,0,7.3c0,2.8,0,5.7,0.1,8.5c0.1,2.3,0.8,4.4,2.3,6.2
	c1.6,1.8,3.2,3.5,5.8,3.9c2,0.3,3.9,0.6,5.9,1c1.6,0.3,3.2,0.7,4.9,0.9c2.8,0.5,5.6,0.8,8.3,1.4c2.9,0.7,5.7,2,8.8,2
	c1,0,1.9-0.1,2.9-0.1c2.5,0.2,5,0.4,7.5,0.6c0,0,0-0.1,0-0.1c0.5,0,1,0,1.4,0c2.1,0.2,4.2-0.4,5.9-1.4c2.6-1.5,4.4-3.9,6.4-6.2
	c0.2-0.2,0.2-0.5,0.3-0.8c0.1-1.7,0.2-3.3,0.2-5c0-2.5,0-5.1,0-7.6C74.6,59.5,74.6,58.4,74.5,57.3z M72.2,72.2
	c-0.1,1.1-1.2,2.3-2,3.2c-0.7,0.9-1.7,1.5-2.6,2.2c-2.4,2.1-5.4,2-8.3,1.8c-3.1,0-6.3,0-9.4,0c-2.3,0-4.4-0.4-6.5-1.5
	c-1.3-0.7-2.9-0.8-4.4-1.1c-2.3-0.4-4.6-0.7-7-1c-2.4-0.4-4.7-0.9-7.1-1.1c-3.6-0.4-6.3-2-7.9-5.2c-0.5-1-0.8-2.2-0.8-3.3
	c-0.1-3.2,0-6.5,0-9.8c0-3.1,0-6.3,0-9.4c0-1.6,0-3.2,0-4.8c0-1.8,0-3.6,0-5.4c-0.1-1.8-0.4-3.5-0.4-5.3c0-2.5,0.2-5.1,0.5-7.6
	c0.3-2.2,0.8-4.5,1.6-6.6c0.7-1.8,2.1-3.3,4-4.2c1.5-0.7,3.1-1.2,4.9-1c1.4,0.2,2.9-0.2,4.4-0.2c2.8,0.1,5.6,0.4,8.4,0.4
	c2.6,0,5.2-0.3,7.8-0.4c1.3-0.1,2.7,0,4,0c1.6,0,3.2-0.1,4.7,0c1.1,0,2.3,0.1,3.4,0.2c1.7,0.2,3.4,0.5,5.1,0.7
	c1.8,0.2,3.7,2.4,3.8,4.2c0.1,1.3,0.2,2.5,0.5,3.7c0.2,0.6,0.8,1.1,1.3,1.5c1.3,0.9,1.5,2.2,1.7,3.6c0.2,0.9,0.1,1.7,0.1,2.6
	c0,1.4-0.1,2.9-0.1,4.3c0,1.5,0,2.9,0,4.4c-0.1,3.4-0.2,6.8-0.2,10.2c0,2,0.1,4,0.2,6.1c0.1,2.1,0.5,4.3,0.4,6.4
	C72.7,64,72.6,68.1,72.2,72.2z"/>
<path d="M58.5,40.1c-1.8-1.1-3.9-1.1-5.9-0.4c-0.3,0.1-0.9-0.1-1.2-0.4c-0.7-0.4-1.4-1.1-2.1-1.4c-3.2-1-6.5-0.9-9.8-0.8
	c-0.5,0-0.9,0-1.4,0c-2-0.1-3.6,1.3-3.6,3.1c0,1.6,0,3.2,0,4.8c0,1.1-0.1,2.2-0.2,3.3c-0.1,2.3-0.1,4.6-0.1,6.9c0,1.7-0.1,3.4,0.1,5
	c0.1,0.7,1,1.6,1.7,1.7c2.6,0.7,5.2,1.4,7.8,1.7c2.1,0.3,4.4,0.2,6.5-0.1c1.5-0.3,3.3-0.7,3.9-2.7c0.4-1.1,1.1-2.1,1.7-3.1
	c1.1-1.9,2.5-3.8,3.3-5.8c1-2.6,1.5-5.4,1.7-8.3C60.9,41.9,59.8,40.9,58.5,40.1z M58.1,47.2c-0.5,2.9-1.8,5.5-3.3,8.1
	c-0.8,1.4-1.7,2.8-2.7,4.1c-0.9,1.2-2.1,1.7-3.7,1.6c-1.8-0.1-3.6-0.1-5.3-0.2c-1.8-0.1-3.5-0.2-5.3-0.4c-1.3-0.2-1.8-1.2-1.2-2.8
	c0-2.7,0-5.7,0-8.7c0-2.4-0.1-4.8-0.2-7.2c-0.1-1.6,0.3-2.1,1.9-2.2c1.7-0.1,3.4-0.3,5.1-0.1c1.9,0.2,3.7,0.8,5.5,1.3
	c0.1,0,0.2,0.1,0.3,0.2c1.5,2,3.3,1.4,5.3,1c1.9-0.5,4,0.4,4.1,2.4C58.6,45.2,58.2,46.2,58.1,47.2z"/>
<path d="M63.7,22.4c-0.6-0.6-1.4-1.1-2.2-1.5c-1.4-0.8-4-0.2-4.6,1.2c-0.5,1-0.8,2.2-1.1,3.3c0.1,0,0.1,0,0.2,0.1c0,0.2,0,0.4,0,0.6
	c0.3,1.1,0.1,2.5,1.5,3.2c0.7,0.3,1.4,0.6,2.1,0.7c1.2,0.2,2.4,0,3.4-0.9c1.5-1.3,2.2-2.9,1.4-4.9C64.2,23.6,64.1,22.8,63.7,22.4z
	 M60.1,27.6c-1.2,0.1-1.7-0.6-1.7-2.1c0-1.3,0.8-2.4,1.8-2.4c1,0,2.3,1.3,2.3,2.4C62.5,26.3,61.2,27.5,60.1,27.6z"/>
</svg>
