<?xml version="1.0" encoding="utf-8"?>
<!-- Generator: Adobe Illustrator 23.1.0, SVG Export Plug-In . SVG Version: 6.00 Build 0)  -->
<svg version="1.1" id="Layer_1" xmlns="http://www.w3.org/2000/svg" xmlns:xlink="http://www.w3.org/1999/xlink" x="0px" y="0px"
	 viewBox="0 0 164 709" style="enable-background:new 0 0 164 709;" xml:space="preserve">
<style type="text/css">
	.st0{fill:#FDFDFD;}
	.st1{fill:#130C0B;}
	.st2{fill:#151515;}
	.st3{fill:#121212;}
	.st4{fill:#141414;}
	.st5{fill:#F9643D;}
	.st6{fill:#F6633D;}
	.st7{fill:#E9603C;}
	.st8{fill:#DEDEDE;}
	.st9{fill:#D3D3D3;}
	.st10{fill:#DCDCDC;}
</style>
<g>
	<path class="st0" d="M0,0c54.67,0,109.33,0,164,0c0,236.33,0,472.67,0,709c-54.67,0-109.33,0-164,0C0,472.67,0,236.33,0,0z
		 M53.38,687.1c0.44,0.01,0.89,0.02,1.33,0.04c0.18,1.71,0.45,3.42,0.53,5.14c0.39,8.08,3.61,11.34,11.49,11.59
		c5.23,0.16,11.84-3.3,12.82-7.3c0.54-2.21-0.29-4.72-0.29-7.1c0.01-8.65,0.5-17.32,0.06-25.95c-0.36-7.06-1.79-14.07-2.69-21.1
		c-0.33-2.59-0.5-5.21-0.72-7.81c-0.65-7.66-1.28-15.31-1.93-22.97c-0.25-2.9-0.73-5.79-0.77-8.7c-0.07-5.41,1.14-11.06-0.05-16.17
		c-1.66-7.13-0.07-13.94-0.03-20.89c0.04-6.27,0.57-12.54,0.45-18.81c-0.15-7.56-0.96-15.1-1.09-22.66
		c-0.15-8.92,0.14-17.85,0.21-26.77c0.03-4.48-0.09-8.96,0.03-13.43c0.23-8,0.83-16.01,0.83-24.01c0.01-7.74-0.62-15.49-0.82-23.24
		c-0.18-6.93,0.14-13.88-0.32-20.79c-0.42-6.49-2.55-13-2.17-19.4c0.61-10.35-2.64-20.78,0.73-31.03c0.09-0.28-0.13-0.65-0.15-0.98
		c-0.31-7.07-1.26-14.19-0.78-21.21c0.73-10.66,2.33-21.26,3.8-31.86c0.89-6.42,2.67-12.73,3.28-19.16
		c0.77-8.04,0.72-16.15,1.08-24.23c0.16-3.77,0.61-7.54,0.62-11.31c0.01-8.44-0.25-16.88-0.24-25.32c0-4.7,0.09-9.42,0.55-14.1
		c0.95-9.6,1.7-19.27,3.47-28.74c1.32-7.05,3.8-13.94,6.32-20.7c2.59-6.94,5.12-14.08,8.99-20.32c5.74-9.22,12.41-17.9,19.13-26.47
		c4.41-5.62,9.76-10.49,14.39-15.96c4.88-5.77,10.13-11.42,13.91-17.89c5.21-8.92,9.27-18.52,13.59-27.93
		c0.57-1.25,0.38-3.87-0.49-4.56c-2.43-1.91-5.36-3.23-8.16-4.63c-8.69-4.35-17.59-4.91-26.69-1.27c-0.91,0.37-1.94,0.54-2.92,0.61
		c-7.08,0.54-14.15,1.32-21.23,1.48c-8.68,0.19-17.38-0.15-26.06-0.24c-7.35-0.08-14.55-2.27-22.03-0.95
		c-5.45,0.96-11.27,2.14-16.55,1.18c-10-1.81-19.02,0.95-27.95,4.19c-2.06,0.75-4.53,5.07-4.05,7.09c0.93,3.96,3.14,8.17,6.06,10.98
		c3.24,3.11,4.68,6.64,5.92,10.56c1.66,5.24,3.03,10.6,5.07,15.68c1.43,3.55,3.13,7.44,5.85,9.92c7.5,6.85,13.55,14.92,17.23,24.03
		c5.09,12.61,10.31,25.54,11.76,39.12c1.31,12.25,0.22,24.74,0.37,37.12c0.13,10.96,0.43,21.91,0.82,32.86
		c0.26,7.42,1.55,14.89,1.01,22.23c-0.7,9.47-2.96,18.82-4.2,28.26c-1.07,8.13-1.84,16.31-2.38,24.49
		c-0.54,8.17-0.68,16.36-0.89,24.55c-0.15,5.97-0.24,11.94-0.15,17.91c0.12,7.9,0.65,15.81,0.6,23.71
		c-0.07,11.34-0.59,22.68-0.76,34.02c-0.12,7.91,0.13,15.83,0.04,23.75c-0.08,6.85-0.69,13.7-0.53,20.53
		c0.22,9.62,1,19.23,1.44,28.85c0.39,8.51,0.74,17.02,0.93,25.54c0.17,7.76-0.08,15.52,0.21,23.27c0.37,9.84,1.93,19.71,1.44,29.49
		c-0.53,10.62,3.09,20.86,1.53,31.55c-0.97,6.64,0.22,13.57-0.36,20.3c-0.6,6.94-2.43,13.77-3.24,20.7
		c-1.23,10.47-2.16,20.99-2.97,31.5c-0.5,6.42-0.6,12.87-0.77,19.31c-0.11,4.33,1.78,5.68,5.84,4.62
		C52.91,693.86,53.14,690.48,53.38,687.1z M122.56,11.11c-0.74,0.48-2.26,1.13-3.34,2.22c-5.12,5.2-6.77,15.72-2.72,21.68
		c1.66,2.44,2.98,6.62,8.23,5.04c5.86-1.76,11.3-6.87,10.19-12.66c-1.06-5.52-5.19-10.49-8.2-15.57
		C126.34,11.2,124.55,11.42,122.56,11.11z M63.22,19.42c1.72,2.37,4.2,6.08,6.98,9.54c3.68,4.57,3.76,4.48,6.11-0.57
		c0.25-0.53,1.06-0.77,1.5-1.25c5.05-5.61,6.22-12.18,2.75-18.67c-1.45-2.72-3.78-4.69-7.66-3.65
		C68.33,6.04,63.76,12.39,63.22,19.42z M25.75,25.61c-0.42-7.45-6.98-13.75-13.86-13.32c-2.69,0.17-8.03,6.26-7.85,8.96
		c0.4,6.11,6.79,13.3,11.43,12.87C20.42,33.68,25.94,29.1,25.75,25.61z"/>
	<path class="st1" d="M53.38,687.1c-0.24,3.38-0.47,6.77-0.71,10.22c-4.06,1.07-5.95-0.28-5.84-4.62
		c0.16-6.44,0.27-12.89,0.77-19.31c0.82-10.52,1.75-21.03,2.97-31.5c0.81-6.93,2.64-13.76,3.24-20.7c0.58-6.73-0.62-13.66,0.36-20.3
		c1.56-10.69-2.05-20.93-1.53-31.55c0.48-9.78-1.08-19.65-1.44-29.49c-0.29-7.75-0.03-15.52-0.21-23.27
		c-0.19-8.52-0.54-17.03-0.93-25.54c-0.44-9.62-1.21-19.22-1.44-28.85c-0.16-6.84,0.46-13.68,0.53-20.53
		c0.09-7.91-0.15-15.83-0.04-23.75c0.17-11.34,0.69-22.68,0.76-34.02c0.05-7.9-0.49-15.8-0.6-23.71c-0.09-5.97,0-11.94,0.15-17.91
		c0.21-8.19,0.35-16.38,0.89-24.55c0.54-8.18,1.32-16.36,2.38-24.49c1.24-9.45,3.5-18.79,4.2-28.26c0.54-7.35-0.75-14.81-1.01-22.23
		c-0.38-10.95-0.69-21.91-0.82-32.86c-0.15-12.38,0.94-24.87-0.37-37.12c-1.45-13.58-6.66-26.51-11.76-39.12
		c-3.68-9.11-9.73-17.17-17.23-24.03c-2.72-2.49-4.42-6.38-5.85-9.92C17.82,94.6,16.46,89.24,14.8,84
		c-1.24-3.92-2.69-7.45-5.92-10.56c-2.92-2.81-5.13-7.01-6.06-10.98c-0.48-2.03,1.99-6.35,4.05-7.09c8.93-3.24,17.95-6,27.95-4.19
		c5.28,0.96,11.1-0.22,16.55-1.18c7.49-1.32,14.69,0.87,22.03,0.95c8.69,0.09,17.38,0.43,26.06,0.24
		c7.09-0.16,14.16-0.93,21.23-1.48c0.99-0.08,2.01-0.25,2.92-0.61c9.1-3.64,17.99-3.08,26.69,1.27c2.81,1.4,5.73,2.72,8.16,4.63
		c0.87,0.68,1.06,3.31,0.49,4.56c-4.32,9.41-8.38,19.01-13.59,27.93c-3.78,6.47-9.03,12.12-13.91,17.89
		c-4.63,5.46-9.98,10.33-14.39,15.96c-6.72,8.56-13.39,17.24-19.13,26.47c-3.88,6.23-6.4,13.38-8.99,20.32
		c-2.52,6.75-5,13.65-6.32,20.7c-1.77,9.47-2.51,19.14-3.47,28.74c-0.46,4.67-0.54,9.4-0.55,14.1c-0.01,8.44,0.25,16.88,0.24,25.32
		c-0.01,3.77-0.46,7.54-0.62,11.31c-0.35,8.08-0.31,16.19-1.08,24.23c-0.61,6.43-2.39,12.74-3.28,19.16
		c-1.47,10.59-3.07,21.2-3.8,31.86c-0.48,7.02,0.46,14.14,0.78,21.21c0.01,0.33,0.24,0.7,0.15,0.98
		c-3.37,10.25-0.12,20.68-0.73,31.03c-0.38,6.4,1.74,12.9,2.17,19.4c0.45,6.91,0.14,13.86,0.32,20.79
		c0.2,7.75,0.83,15.49,0.82,23.24c-0.01,8-0.61,16-0.83,24.01c-0.13,4.47,0,8.95-0.03,13.43c-0.07,8.92-0.36,17.85-0.21,26.77
		c0.13,7.56,0.95,15.1,1.09,22.66c0.12,6.26-0.41,12.54-0.45,18.81c-0.04,6.94-1.62,13.75,0.03,20.89
		c1.19,5.12-0.02,10.77,0.05,16.17c0.03,2.9,0.52,5.8,0.77,8.7c0.65,7.66,1.28,15.31,1.93,22.97c0.22,2.61,0.39,5.22,0.72,7.81
		c0.9,7.04,2.34,14.04,2.69,21.1c0.43,8.63-0.05,17.3-0.06,25.95c0,2.38,0.83,4.89,0.29,7.1c-0.99,4.01-7.59,7.47-12.82,7.3
		c-7.89-0.25-11.1-3.52-11.49-11.59c-0.08-1.72-0.35-3.42-0.53-5.14C54.27,687.12,53.82,687.11,53.38,687.1z M66.21,572.09
		c-0.11-4.7-0.23-9.4-0.34-14.1c-0.05-0.68-0.1-1.37-0.15-2.05c0.08-0.31,0.15-0.61,0.23-0.92c2.43-10.17,1.15-20.39,0.55-30.61
		c-0.19-3.2,0.6-6.46,0.48-9.67c-0.32-8.58-1.25-17.15-1.25-25.73c-0.01-8.83,1.13-17.67,1.15-26.5
		c0.02-10.19-0.67-20.39-0.96-30.58c-0.12-4.4,0.22-8.82-0.04-13.2c-0.45-7.74-1.38-15.46-1.76-23.2
		c-0.42-8.26-0.58-16.54-0.58-24.81c0-4.95,1.16-9.96,0.7-14.83c-1.08-11.46-1.09-22.84,0.42-34.24c1.88-14.17,3.75-28.34,5.4-42.54
		c0.82-7.06,1.39-14.17,1.61-21.27c0.23-7.4-0.19-14.82-0.11-22.23c0.03-3.32,0.89-6.63,0.84-9.94c-0.06-4.53-1.25-9.12-0.82-13.57
		c0.62-6.44,3.17-12.78,3.27-19.18c0.15-10.48,4.46-19.65,7.63-29.16c1.73-5.21,5.16-9.82,7.4-14.89
		c5.9-13.35,14.45-24.82,24.19-35.56c10.98-12.11,23.62-22.93,29.29-39.13c1.92-5.5,5.17-10.54,7.92-16
		c-1.67-0.35-3.09-0.31-4.12-0.92c-7.32-4.39-14.66-3.39-22.47-1.2c-5.91,1.65-12.24,1.92-18.41,2.47
		c-4.53,0.4-9.11,0.25-13.67,0.39c-4.88,0.16-9.77,0.73-14.63,0.49c-7.34-0.36-14.65-1.63-21.99-1.83
		c-9.33-0.25-18.7-0.15-28.01,0.43c-6.05,0.38-12.03,1.87-18.12,2.87c1.84,3.6,2.53,6.62,4.41,8.36c6.7,6.21,7.9,14.75,10.15,22.76
		c1.56,5.55,3.82,10.46,8.1,14.27c7.85,6.98,13.33,15.74,17.26,25.19c3.89,9.37,6.1,19.42,9.44,29.04
		c6.07,17.52,2.77,35.55,3.37,53.37c0.27,7.93,0.54,15.85,0.89,23.77c0.28,6.36,1.44,12.78,0.87,19.05
		c-1.19,13.11-3.38,26.13-4.91,39.21c-0.84,7.18-1.36,14.41-1.74,21.63c-0.41,7.82-0.48,15.66-0.69,23.49
		c-0.17,6.15-0.52,12.31-0.43,18.46c0.13,9.64,0.74,19.28,0.81,28.92c0.04,6.19-0.69,12.39-0.79,18.59
		c-0.19,12.38-0.19,24.76-0.25,37.15c-0.04,6.83-0.28,13.66-0.01,20.48c0.32,7.9,1.34,15.76,1.63,23.66
		c0.34,9.21,0.04,18.44,0.36,27.65c0.45,13.36,1.2,26.71,1.82,40.06c0.22,0.5,0.44,0.99,0.66,1.49c0.06,0.5,0.12,1,0.18,1.5
		c-0.36,2.02-0.72,4.04-1.08,6.06c-0.02,0.33-0.03,0.66-0.05,0.99c0.31,3.35,0.72,6.69,0.9,10.04c0.33,6.25,0.44,12.52,0.82,18.77
		c0.33,5.4,0.93,10.77,1.41,16.16c-0.13,0.3-0.19,0.62-0.19,0.95c-0.25,1.68-0.51,3.35-0.76,5.03c0.03,1.35,0.06,2.71,0.09,4.06
		c-0.04,0.65-0.07,1.3-0.11,1.95c-0.08,1.15-0.04,2.32-0.25,3.45c-1.36,7.52-2.87,15.01-4.13,22.55
		c-1.34,7.97-2.69,15.95-3.56,23.98c-0.37,3.46-0.49,9.6,0.9,10.11c5.42,2,4.99,6.62,6.28,10.37c1.31,3.83,4.16,3.25,6.8,2.95
		c2.6-0.3,5.28-0.85,5.11-4.68c-0.23-5.18-0.11-10.38-0.17-15.57c-0.04-3.04-0.03-6.09-0.23-9.13c-0.39-5.75-0.87-11.5-1.42-17.24
		c-0.76-7.93-1.62-15.85-2.44-23.78c-0.45-1.67-0.9-3.34-1.35-5.01c-0.01-0.72-0.03-1.43-0.04-2.15c0.04-3.35,0.28-6.71,0.1-10.05
		c-0.61-11.61-1.35-23.2-2.05-34.81C65.77,573.35,65.99,572.72,66.21,572.09z"/>
	<path class="st2" d="M122.56,11.11c1.99,0.3,3.79,0.09,4.16,0.71c3.01,5.08,7.14,10.05,8.2,15.57c1.11,5.8-4.33,10.9-10.19,12.66
		c-5.25,1.58-6.56-2.6-8.23-5.04c-4.05-5.96-2.4-16.48,2.72-21.68C120.29,12.24,121.82,11.59,122.56,11.11z M122.78,32.78
		c8.08-1.56,6.4-7.92,2.43-12.62c-0.71-0.84-3.25-1.46-3.54-1.1c-1.23,1.59-1.94,3.59-3,5.77c1.37,0,2.12,0,2.61,0
		C121.77,27.45,122.25,29.98,122.78,32.78z"/>
	<path class="st3" d="M63.22,19.42c0.54-7.03,5.11-13.38,9.68-14.61c3.88-1.04,6.21,0.93,7.66,3.65c3.47,6.49,2.3,13.06-2.75,18.67
		c-0.43,0.48-1.25,0.72-1.5,1.25c-2.35,5.05-2.43,5.14-6.11,0.57C67.42,25.5,64.94,21.79,63.22,19.42z M72.49,21.77
		c3.95-4.82,4.01-5.57,1.06-9.77C69.25,14.66,69.73,17.86,72.49,21.77z"/>
	<path class="st4" d="M25.75,25.61c0.19,3.49-5.33,8.07-10.28,8.52c-4.64,0.43-11.03-6.76-11.43-12.87
		c-0.18-2.7,5.16-8.79,7.85-8.96C18.77,11.86,25.33,18.17,25.75,25.61z M9.43,21.9c0.1,0.68,0.21,1.35,0.31,2.03
		c2.28,0.86,4.52,1.87,6.87,2.37c0.3,0.06,2.06-3.16,1.6-3.85c-1.08-1.64-2.94-3.34-4.75-3.71C12.38,18.52,10.79,20.77,9.43,21.9z"
		/>
	<path class="st5" d="M59.85,566.02c0.02-0.33,0.03-0.66,0.05-0.99c0.36-2.02,0.72-4.04,1.08-6.06c-0.06-0.5-0.12-1-0.18-1.5
		c0.07-0.49,0.13-0.98,0.2-1.48c0.07-0.13,0.15-0.27,0.22-0.4c-0.07,0.13-0.15,0.27-0.22,0.4c-0.29-0.01-0.57-0.01-0.86-0.01
		c-0.62-13.35-1.37-26.7-1.82-40.06c-0.31-9.21-0.01-18.45-0.36-27.65c-0.29-7.9-1.31-15.77-1.63-23.66
		c-0.28-6.82-0.03-13.65,0.01-20.48c0.07-12.38,0.06-24.77,0.25-37.15c0.1-6.2,0.83-12.39,0.79-18.59
		c-0.07-9.64-0.68-19.28-0.81-28.92c-0.09-6.15,0.27-12.31,0.43-18.46c0.21-7.83,0.29-15.67,0.69-23.49
		c0.38-7.22,0.89-14.45,1.74-21.63c1.54-13.08,3.73-26.1,4.91-39.21c0.57-6.27-0.59-12.69-0.87-19.05
		c-0.35-7.92-0.62-15.85-0.89-23.77c-0.61-17.82,2.7-35.85-3.37-53.37c-3.33-9.62-5.54-19.68-9.44-29.04
		c-3.93-9.45-9.41-18.21-17.26-25.19c-4.28-3.81-6.54-8.71-8.1-14.27c-2.25-8.01-3.45-16.55-10.15-22.76
		c-1.88-1.74-2.58-4.76-4.41-8.36c6.1-1.01,12.07-2.5,18.12-2.87c9.31-0.58,18.68-0.68,28.01-0.43c7.34,0.2,14.65,1.47,21.99,1.83
		c4.86,0.24,9.75-0.33,14.63-0.49c4.56-0.15,9.14,0.01,13.67-0.39c6.17-0.55,12.5-0.81,18.41-2.47c7.82-2.19,15.15-3.19,22.47,1.2
		c1.03,0.62,2.45,0.57,4.12,0.92c-2.75,5.47-6,10.5-7.92,16c-5.67,16.2-18.31,27.02-29.29,39.13c-9.74,10.73-18.29,22.2-24.19,35.56
		c-2.24,5.07-5.67,9.68-7.4,14.89c-3.16,9.51-7.48,18.68-7.63,29.16c-0.09,6.4-2.64,12.73-3.27,19.18
		c-0.43,4.45,0.76,9.04,0.82,13.57c0.04,3.31-0.81,6.63-0.84,9.94c-0.08,7.41,0.35,14.83,0.11,22.23
		c-0.22,7.1-0.79,14.21-1.61,21.27c-1.65,14.2-3.52,28.37-5.4,42.54c-1.51,11.41-1.5,22.78-0.42,34.24c0.46,4.88-0.7,9.89-0.7,14.83
		c0,8.27,0.17,16.55,0.58,24.81c0.39,7.74,1.31,15.46,1.76,23.2c0.25,4.39-0.09,8.8,0.04,13.2c0.29,10.2,0.98,20.39,0.96,30.58
		c-0.02,8.83-1.15,17.67-1.15,26.5c0.01,8.58,0.94,17.15,1.25,25.73c0.12,3.21-0.67,6.47-0.48,9.67c0.6,10.23,1.87,20.45-0.55,30.61
		c-0.13,0.07-0.37,0.13-0.37,0.2c0,0.24,0.09,0.48,0.14,0.72c0.05,0.68,0.1,1.37,0.15,2.05c-0.7,3.22-1.4,6.43-2.15,9.83
		C62.61,567.3,61.23,566.66,59.85,566.02z"/>
	<path class="st6" d="M67.5,618.85c0.01,0.72,0.03,1.43,0.04,2.15c-3.17,2.64-0.75,3.78,1.35,5.01c0.82,7.93,1.68,15.85,2.44,23.78
		c0.55,5.74,1.03,11.49,1.42,17.24c0.21,3.03,0.2,6.08,0.23,9.13c0.06,5.19-0.06,10.39,0.17,15.57c0.17,3.83-2.51,4.39-5.11,4.68
		c-2.64,0.3-5.49,0.88-6.8-2.95c-1.29-3.75-0.86-8.38-6.28-10.37c-1.39-0.51-1.28-6.66-0.9-10.11c0.87-8.03,2.23-16.01,3.56-23.98
		c1.27-7.54,2.78-15.03,4.13-22.55c0.2-1.13,0.17-2.3,0.25-3.45c0.04-0.65,0.07-1.3,0.11-1.95c-0.03-1.35-0.06-2.71-0.09-4.06
		c0.6-1.34,1.21-2.68,1.81-4.02c0.51,0.49,1.02,0.98,1.52,1.46C66.08,615.89,66.79,617.37,67.5,618.85z"/>
	<path class="st7" d="M67.5,618.85c-0.71-1.48-1.43-2.95-2.14-4.43c-0.51-0.49-1.02-0.98-1.52-1.46c-0.6,1.34-1.21,2.68-1.81,4.02
		c0.25-1.68,0.51-3.35,0.76-5.03c0.06-0.32,0.13-0.63,0.19-0.95c-0.48-5.39-1.08-10.77-1.41-16.16c-0.39-6.25-0.49-12.52-0.82-18.77
		c-0.18-3.35-0.59-6.7-0.9-10.04c1.38,0.64,2.76,1.29,3.87,1.8c0.74-3.4,1.44-6.61,2.15-9.83c0.11,4.7,0.23,9.4,0.34,14.1
		c-1.34,0.08-2.68,0.16-4.01,0.24c1.12,0.55,2.24,1.1,3.36,1.65c0.69,11.6,1.44,23.2,2.05,34.81
		C67.78,612.13,67.55,615.49,67.5,618.85z"/>
	<path class="st5" d="M65.56,573.98c-1.12-0.55-2.24-1.1-3.36-1.65c1.34-0.08,2.68-0.16,4.01-0.24
		C65.99,572.72,65.77,573.35,65.56,573.98z"/>
	<path class="st7" d="M68.89,626c-2.1-1.23-4.51-2.37-1.35-5.01C67.99,622.66,68.44,624.33,68.89,626z"/>
	<path class="st7" d="M60.98,558.98c-0.36,2.02-0.72,4.04-1.08,6.06C60.26,563.01,60.62,560.99,60.98,558.98z"/>
	<path class="st7" d="M62.12,621.04c-0.04,0.65-0.07,1.3-0.11,1.95C62.05,622.34,62.08,621.69,62.12,621.04z"/>
	<path class="st7" d="M65.71,555.94c-0.05-0.24-0.14-0.48-0.14-0.72c0-0.07,0.24-0.13,0.37-0.2
		C65.87,555.33,65.79,555.63,65.71,555.94z"/>
	<path class="st7" d="M61,556c-0.07,0.49-0.13,0.98-0.2,1.48c-0.22-0.49-0.44-0.99-0.66-1.48C60.43,555.99,60.71,555.99,61,556
		L61,556z"/>
	<path class="st6" d="M62.98,610.99c-0.06,0.32-0.13,0.63-0.19,0.95C62.79,611.61,62.86,611.3,62.98,610.99z"/>
	<path class="st8" d="M122.78,32.78c-0.53-2.8-1.01-5.33-1.51-7.95c-0.49,0-1.24,0-2.61,0c1.06-2.18,1.77-4.18,3-5.77
		c0.29-0.37,2.83,0.26,3.54,1.1C129.18,24.86,130.86,31.23,122.78,32.78z"/>
	<path class="st9" d="M72.49,21.77c-2.76-3.91-3.24-7.11,1.06-9.77C76.5,16.2,76.44,16.95,72.49,21.77z"/>
	<path class="st10" d="M9.43,21.9c1.36-1.13,2.95-3.38,4.04-3.16c1.81,0.37,3.68,2.07,4.75,3.71c0.45,0.69-1.3,3.91-1.6,3.85
		c-2.35-0.5-4.6-1.51-6.87-2.37C9.64,23.25,9.53,22.58,9.43,21.9z"/>
	<path class="st7" d="M61,556c0.07-0.13,0.15-0.27,0.22-0.4C61.15,555.73,61.07,555.87,61,556C61,556,61,556,61,556z"/>
</g>
</svg>
